<svg width="410" height="404" viewBox="0 0 410 404" fill="none" xmlns="http://www.w3.org/2000/svg">
  <!-- Stem -->
  <path d="M205 70 Q210 35 215 10" stroke="#5D8C3E" stroke-width="8" stroke-linecap="round"/>
  
  <!-- Calyx (green leafy top) - 5-pointed sepal -->
  <g fill="#6BAE48">
    <ellipse cx="175" cy="110" rx="30" ry="18" transform="rotate(-30 175 110)"/>
    <ellipse cx="235" cy="110" rx="30" ry="18" transform="rotate(30 235 110)"/>
    <ellipse cx="205" cy="90" rx="25" ry="15"/>
    <ellipse cx="185" cy="125" rx="25" ry="18" transform="rotate(-60 185 125)"/>
    <ellipse cx="225" cy="125" rx="25" ry="18" transform="rotate(60 225 125)"/>
  </g>
  
  <!-- Calyx center -->
  <circle cx="205" cy="110" r="15" fill="#4D7A2E"/>
  
  <!-- Tomato body - fatter, shorter -->
  <path d="M 205 110 
           C 90 110 40 180 40 240
           C 40 320 110 360 205 360
           C 300 360 370 320 370 240
           C 370 180 320 110 205 110 Z" 
        fill="url(#tomatoGradient)"/>
  
  <!-- Subtle surface highlights -->
  <ellipse cx="150" cy="185" rx="40" ry="22" fill="rgba(255,200,200,0.25)" transform="rotate(-30 150 185)"/>
  <ellipse cx="250" cy="265" rx="22" ry="32" fill="rgba(255,200,200,0.15)" transform="rotate(20 250 265)"/>
  
  <defs>
    <radialGradient id="tomatoGradient" cx="0" cy="0" r="1" gradientUnits="userSpaceOnUse" gradientTransform="translate(205 230) rotate(90) scale(125)">
      <stop offset="0%" stop-color="#FF8A80"/>
      <stop offset="40%" stop-color="#FF5252"/>
      <stop offset="100%" stop-color="#D32F2F"/>
    </radialGradient>
  </defs>
</svg>
